<svg width="29" height="29" viewBox="0 0 29 29" fill="none" xmlns="http://www.w3.org/2000/svg">
<path d="M26.3336 5.79056C26.5419 5.58888 26.7082 5.3476 26.8226 5.08079C26.937 4.81398 26.9973 4.52698 26.9999 4.23655C27.0026 3.94612 26.9475 3.65806 26.838 3.38919C26.7285 3.12033 26.5667 2.87603 26.3621 2.67055C26.1574 2.46508 25.9141 2.30255 25.6461 2.19244C25.3782 2.08233 25.0911 2.02685 24.8016 2.02924C24.5121 2.03162 24.2259 2.09183 23.9598 2.20634C23.6937 2.32085 23.4531 2.48737 23.2518 2.69619L14.5123 11.4602L5.77579 2.69619C5.57616 2.48128 5.33543 2.30891 5.06796 2.18936C4.80049 2.06981 4.51175 2.00552 4.21897 2.00034C3.92619 1.99516 3.63538 2.04919 3.36386 2.1592C3.09235 2.26921 2.84571 2.43295 2.63866 2.64066C2.4316 2.84837 2.26837 3.09578 2.1587 3.36815C2.04903 3.64051 1.99517 3.93225 2.00034 4.22594C2.00551 4.51964 2.06959 4.80928 2.18877 5.0776C2.30794 5.34591 2.47977 5.5874 2.69401 5.78765L11.4247 14.5546L2.68819 23.3186C2.30303 23.7332 2.09334 24.2816 2.10331 24.8483C2.11327 25.415 2.34212 25.9557 2.74162 26.3564C3.14113 26.7572 3.68011 26.9867 4.24501 26.9967C4.80991 27.0067 5.35662 26.7964 5.76997 26.41L14.5123 17.646L23.2489 26.4129C23.6623 26.7993 24.209 27.0097 24.7739 26.9997C25.3388 26.9897 25.8777 26.7601 26.2772 26.3593C26.6768 25.9586 26.9056 25.4179 26.9156 24.8512C26.9255 24.2846 26.7158 23.7361 26.3307 23.3215L17.5999 14.5546L26.3336 5.79056Z" fill="#CF2926"/>
</svg>
