<svg width="52" height="52" viewBox="0 0 52 52" fill="none" xmlns="http://www.w3.org/2000/svg">
<path d="M50.3549 9.34824C50.7401 8.97655 51.0474 8.53187 51.2589 8.04014C51.4704 7.54841 51.5818 7.01948 51.5867 6.48422C51.5916 5.94896 51.4899 5.41808 51.2874 4.92256C51.085 4.42704 50.7858 3.97681 50.4075 3.59812C50.0292 3.21944 49.5792 2.9199 49.0839 2.71697C48.5886 2.51404 48.0578 2.41179 47.5225 2.41619C46.9873 2.42059 46.4582 2.53154 45.9663 2.74258C45.4744 2.95362 45.0294 3.26052 44.6574 3.64536L28.5001 19.7972L12.3482 3.64536C11.9792 3.2493 11.5341 2.93162 11.0396 2.71129C10.5451 2.49096 10.0113 2.37248 9.47004 2.36293C8.92876 2.35338 8.39111 2.45295 7.88915 2.6557C7.38719 2.85845 6.9312 3.16023 6.5484 3.54303C6.1656 3.92583 5.86383 4.38181 5.66107 4.88377C5.45832 5.38573 5.35875 5.92339 5.3683 6.46467C5.37785 7.00595 5.49633 7.53976 5.71666 8.03425C5.93699 8.52875 6.25467 8.97381 6.65073 9.34286L22.7919 25.5001L6.63998 41.652C5.9279 42.4162 5.54024 43.4269 5.55867 44.4713C5.57709 45.5157 6.00017 46.5121 6.73877 47.2507C7.47736 47.9893 8.47381 48.4124 9.51817 48.4308C10.5625 48.4492 11.5733 48.0616 12.3375 47.3495L28.5001 31.1976L44.652 47.3549C45.4162 48.0669 46.4269 48.4546 47.4713 48.4362C48.5157 48.4178 49.5121 47.9947 50.2507 47.2561C50.9893 46.5175 51.4124 45.521 51.4308 44.4767C51.4492 43.4323 51.0616 42.4216 50.3495 41.6574L34.2084 25.5001L50.3549 9.34824Z" fill="#CF2926"/>
</svg>
