<svg width="90" height="89" viewBox="0 0 90 89" fill="none" xmlns="http://www.w3.org/2000/svg">
<path d="M25.003 28.3201C24.6022 32.5476 24.321 40.0292 26.8452 43.2137C26.8452 43.2137 25.6569 34.9951 36.3092 24.6837C40.5983 20.5326 41.5897 14.8867 40.0921 10.6523C39.2413 8.25343 37.6874 6.27179 36.3374 4.88811C35.5499 4.0746 36.1546 2.73265 37.3006 2.78132C44.2335 3.08725 55.4694 4.99241 60.2436 16.8405C62.3389 22.0415 62.4936 27.4162 61.4952 32.8814C60.8624 36.3719 58.6124 44.1316 63.7452 45.0841C67.4085 45.7655 69.1803 42.8869 69.9749 40.8149C70.3053 39.9527 71.4514 39.7372 72.0702 40.4255C78.2577 47.3856 78.785 55.5834 77.5053 62.6408C75.0303 76.2828 61.0592 86.2119 47.1795 86.2119C29.8405 86.2119 16.0381 76.401 12.4592 58.6427C11.0178 51.4741 11.7491 37.2897 22.9288 27.2772C23.7585 26.5262 25.1155 27.1937 25.003 28.3201Z" fill="url(#paint0_radial_431_100)"/>
<path d="M53.5148 53.831C47.1234 45.6958 49.9852 36.4134 51.5531 32.7144C51.7641 32.2276 51.2016 31.7687 50.7586 32.0677C48.0094 33.9172 42.3773 38.2699 39.7547 44.3956C36.2039 52.6768 36.457 56.7304 38.5594 61.6811C39.825 64.664 38.3555 65.2967 37.6172 65.4079C36.9 65.5192 36.2391 65.0464 35.7117 64.5527C34.1949 63.1122 33.1139 61.2824 32.5898 59.2683C32.4773 58.8372 31.9078 58.719 31.6476 59.0737C29.6789 61.7645 28.6594 66.0824 28.6101 69.1348C28.4555 78.5702 36.3375 86.2186 45.8719 86.2186C57.8883 86.2186 66.6422 73.0772 59.7375 62.0913C57.7336 58.8929 55.8492 56.8 53.5148 53.831Z" fill="url(#paint1_radial_431_100)"/>
<defs>
<radialGradient id="paint0_radial_431_100" cx="0" cy="0" r="1" gradientTransform="matrix(-49.6315 -0.213007 -0.353872 80.5305 43.7453 86.4281)" gradientUnits="userSpaceOnUse">
<stop offset="0.314" stop-color="#FF9800"/>
<stop offset="0.662" stop-color="#FF6D00"/>
<stop offset="0.972" stop-color="#F44336"/>
</radialGradient>
<radialGradient id="paint1_radial_431_100" cx="0" cy="0" r="1" gradientTransform="matrix(-0.524521 51.3506 39.0794 0.390304 46.5328 37.5874)" gradientUnits="userSpaceOnUse">
<stop offset="0.214" stop-color="#FFF176"/>
<stop offset="0.328" stop-color="#FFF27D"/>
<stop offset="0.487" stop-color="#FFF48F"/>
<stop offset="0.672" stop-color="#FFF7AD"/>
<stop offset="0.793" stop-color="#FFF9C4"/>
<stop offset="0.822" stop-color="#FFF8BD" stop-opacity="0.804"/>
<stop offset="0.863" stop-color="#FFF6AB" stop-opacity="0.529"/>
<stop offset="0.91" stop-color="#FFF38D" stop-opacity="0.209"/>
<stop offset="0.941" stop-color="#FFF176" stop-opacity="0"/>
</radialGradient>
</defs>
</svg>
