<svg width="1440" height="780" viewBox="0 0 1440 780" fill="none" xmlns="http://www.w3.org/2000/svg">
<g clip-path="url(#clip0_407_245)">
<rect width="1440" height="780" fill="#821614"/>
<path fill-rule="evenodd" clip-rule="evenodd" d="M476.745 763.969C568.356 738.799 620.192 635.577 719.576 652.215C969.221 694.009 1159.69 968.477 1396.88 918.01C1572.65 880.61 1325.72 649.165 1353.85 517.259C1376.6 410.599 1592.93 339.647 1542.75 234.062C1487.92 118.674 1285.07 60.5044 1122.33 30.0489C980.635 3.53053 849.768 74.7533 706.34 77.5303C653.944 78.5448 592.719 69.7932 555.468 41.0245C422.447 -61.7055 391.378 -231.247 220.896 -297.37C79.0339 -352.393 -163.787 -362.111 -236.189 -266.029C-320.62 -153.984 -75.9979 -13.5423 -91.0695 116.626C-101.726 208.661 -266.976 246.501 -305.562 333.127C-352.276 438 -412.229 562.306 -334.945 664.131C-259.186 763.947 -80.6581 811.471 71.7219 830.213C213.802 847.689 346.795 799.672 476.745 763.969Z" fill="#FDCFCF"/>
</g>
<defs>
<clipPath id="clip0_407_245">
<rect width="1440" height="780" fill="white"/>
</clipPath>
</defs>
</svg>
