<svg width="1440" height="1080" viewBox="0 0 1440 1080" fill="none" xmlns="http://www.w3.org/2000/svg">
<g clip-path="url(#clip0_411_279)">
<rect width="1440" height="1080" fill="#821614"/>
<path fill-rule="evenodd" clip-rule="evenodd" d="M774.882 970.829C688.178 936.539 636.144 806.745 543.552 824.065C310.97 867.569 141.627 1201.72 -82.3618 1131.18C-248.355 1078.9 -24.6562 800.015 -55.4347 635.426C-80.3225 502.338 -285.447 407.08 -241.952 277.765C-194.419 136.442 -6.23998 71.0564 145.266 38.7128C277.187 10.5504 402.223 103.288 536.745 111.528C585.886 114.539 642.977 105.728 676.929 71.2818C798.168 -51.7221 821.619 -261.023 979.193 -337.359C1110.31 -400.88 1337.57 -404.818 1408.64 -283.195C1491.52 -141.364 1266.95 24.6959 1285.42 186.693C1298.49 301.231 1454.64 353.701 1493.7 462.464C1540.98 594.136 1601.33 750.36 1532.3 874.104C1464.63 995.406 1298.9 1048.4 1156.71 1066.56C1024.13 1083.49 897.872 1019.47 774.882 970.829Z" fill="#FDCFCF"/>
</g>
<defs>
<clipPath id="clip0_411_279">
<rect width="1440" height="1080" fill="white"/>
</clipPath>
</defs>
</svg>
