<svg width="1440" height="780" viewBox="0 0 1440 780" fill="none" xmlns="http://www.w3.org/2000/svg">
<g clip-path="url(#clip0_411_314)">
<rect width="1440" height="780" transform="matrix(-1 0 0 1 1440 0)" fill="#821614"/>
<path fill-rule="evenodd" clip-rule="evenodd" d="M963.255 763.969C871.644 738.799 819.808 635.577 720.424 652.215C470.779 694.009 280.309 968.477 43.1239 918.01C-132.648 880.61 114.283 649.165 86.1492 517.259C63.4 410.599 -152.926 339.647 -102.753 234.062C-47.9218 118.674 154.931 60.5044 317.667 30.0489C459.365 3.53053 590.232 74.7533 733.66 77.5303C786.056 78.5448 847.281 69.7932 884.532 41.0245C1017.55 -61.7055 1048.62 -231.247 1219.1 -297.37C1360.97 -352.393 1603.79 -362.111 1676.19 -266.029C1760.62 -153.984 1516 -13.5423 1531.07 116.626C1541.73 208.661 1706.98 246.501 1745.56 333.127C1792.28 438 1852.23 562.306 1774.94 664.131C1699.19 763.947 1520.66 811.471 1368.28 830.213C1226.2 847.689 1093.21 799.672 963.255 763.969Z" fill="#FDCFCF"/>
</g>
<defs>
<clipPath id="clip0_411_314">
<rect width="1440" height="780" fill="white" transform="matrix(-1 0 0 1 1440 0)"/>
</clipPath>
</defs>
</svg>
